<svg xmlns="http://www.w3.org/2000/svg" viewBox="0 0 466.9 288.53"><defs><style>.cls-1{fill:#057232;}.cls-2{fill:#3da860;}.cls-3{fill:#8dc556;}.cls-4{fill:#70b62c;}.cls-5{fill:#548921;}.cls-6{fill:#0a6e2a;}.cls-7{fill:#acd13f;}.cls-8{fill:#7eb500;}.cls-9{fill:#99ca00;}.cls-10{fill:#609607;}.cls-11{fill:#7db500;}</style></defs><title>grassgreen</title><g id="Слой_2" data-name="Слой 2"><g id="Слой_1-2" data-name="Слой 1"><g id="Слой_2-2" data-name="Слой 2"><g id="Слой_6" data-name="Слой 6"><path class="cls-1" d="M182.1,288.5h20c-2.33-16.36-21.61-147.64-47.8-196.44C126.37,40,108,34.86,108,34.86s35,40.85,48.94,89.87C169.93,170.31,180.66,274.12,182.1,288.5Z"/><path class="cls-1" d="M215.86,35.19s-29.66,64-34.05,125.22c-4.18,58.31-1.65,124.53-1.65,124.53h12.08A860.51,860.51,0,0,1,189,192.06c1.1-48.85,6-84.62,12.08-104.58S215.86,35.19,215.86,35.19Z"/><path class="cls-1" d="M192,286.44h20.34s-18-104.06-1.56-170.57,37.56-97.8,37.56-97.8-32.86,34.43-46.16,96.24S192,286.44,192,286.44Z"/><path class="cls-1" d="M176.13,288.5c.11-16.77.88-123.41,2.86-148.52,2.15-27.28,12.92-66,19.38-95.47S188.32,0,188.32,0s15.79,15.07-7.18,81.12c-21.92,63-16.35,196-15.83,207.38Z"/><path class="cls-1" d="M224.16,171.24c-19.69,43.47-22.31,97.4-22.57,117.26h19.86c-1.58-22.17-4.08-86.15,16-121.36,24.61-43.07,46.14-35.89,46.14-35.89S248.77,116.89,224.16,171.24Z"/><path class="cls-2" d="M191.42,288.5h15c1.79-23.84,8.4-99.06,23.15-138.6,17.67-47.39,5.07-96.79,5.07-96.79s6.6,48.6-16.88,100.28C197.79,197.41,192.54,268.39,191.42,288.5Z"/><path class="cls-1" d="M168.88,288.5H188.2c-2.29-13-18.62-103.36-35.8-136.26-18.54-35.49-32.28-52.1-66.15-64.66,0,0,41.35,17,60.79,93.53C161.83,239.37,167.17,274.86,168.88,288.5Z"/><path class="cls-1" d="M169.24,288.5C164.6,267.14,146,196.34,100,176.5c0,0,25.58,26.35,38.12,55.42,8.38,19.42,12.7,43.05,14.64,56.61Z"/><path class="cls-3" d="M152.59,288.5H133.11s3.25-54.54,41.56-85.71S224,122.92,224,122.92s-5.84,61-33.76,83.11S154.54,263.82,152.59,288.5Z"/><path class="cls-4" d="M131.16,288.5H117.53s-6.49-57.14,7.79-101.29,17.53-74.67,3.9-106.49c0,0,23.38,22.08,16.88,64.28s-19.48,69.48-17.53,94.15S131.16,288.5,131.16,288.5Z"/><path class="cls-2" d="M85.71,288.5h23.38s2.6-81.81-26.62-129.86c-25.29-41.58-29.87-74-29.87-74s.17,44.06,18.83,79.87C95.45,210.58,85.71,288.5,85.71,288.5Z"/><path class="cls-2" d="M85.06,288.5H66.23s-45.45-62.33-48.7-108.44,2-54.54,2-54.54,0,51.3,14.93,82.46S85.06,288.5,85.06,288.5Z"/><path class="cls-2" d="M183.75,66.43S165.57,101.5,161,145.65s-24,67.53-32.47,97.4S122,288.5,122,288.5h17s-7.14-29.87,5.84-59.09,23.38-46.1,25.32-79.87S183.75,66.43,183.75,66.43Z"/><path class="cls-5" d="M94.15,288.5H80.51S57.79,260.58,57.14,221,37,126.17,0,102.79c0,0,36.36,9.74,55.19,53.89s11.69,70.78,17.53,87.66S94.15,288.5,94.15,288.5Z"/><path class="cls-6" d="M94.15,28.12s20.78,38.31,11,86.36C97.52,152.31,93.5,169,99.34,202.79s1.3,85.71,1.3,85.71h16.88s-.65-72.72-6.49-100,8.44-80.51,6.49-101.94C115.79,67.53,104.54,41.11,94.15,28.12Z"/><path class="cls-2" d="M205.83,223.57s-51.3,13-53.24,64.93H139S139.6,230.71,205.83,223.57Z"/><path class="cls-1" d="M310.65,288.5c4.23-6.1,12.12-18.75,14.15-30.94,2.81-16.88,15.94-22.5,15.94-22.5s-17.82,1.88-26.25,22.5a109.94,109.94,0,0,1-19.83,30.94Z"/><path class="cls-4" d="M326.44,223.8c-29.67,16.4-35.28,52.93-36.33,64.7H300c0-9.61,2.7-35.77,28.26-55.32,31.88-24.38,53.45-20.63,53.45-20.63S362.08,204.11,326.44,223.8Z"/><path class="cls-6" d="M281.22,288.5h12.06c7-44,9.64-77.51,6.9-132.21-2.81-56.26,22.51-82.52,22.51-82.52C288,104.71,287.06,158.16,290.81,190,294,217.53,284,273.58,281.22,288.5Z"/><path class="cls-1" d="M283.34,288.5c.09-11.4.35-55-1-78.77-1.41-25.43-5.62-81.58-5.62-81.58s-3.4,72.91-6.56,100.33c-2.32,20.09-.09,50.68.69,60Z"/><path class="cls-1" d="M262.79,288.5h5.32c-1.08-15.9-6.47-95.68-7.31-121-.94-28.13-4.69-76-4.69-76S245.8,170.35,251.43,221C255.85,260.81,260.86,281.48,262.79,288.5Z"/><path class="cls-1" d="M236.19,184.06c10.33,24.78,21.71,91,24,104.44h14.1c-2.18-14.15-14.07-86.34-34.32-117.56-20.08-31-54.39-28.13-54.39-28.13S222.13,150.31,236.19,184.06Z"/><path class="cls-1" d="M258.71,288.5l-7.38-20.67c-8.3-23.25-21.59-35.7-21.59-35.7,13.33,29.33,16.49,49.53,17.22,56.37Z"/><path class="cls-2" d="M264.77,288.5h17.61c-3.35-11.33-16.88-48.69-56.5-78.77,0,0,24.41,29,30,51.25C259.44,275.34,262.84,284.12,264.77,288.5Z"/><path class="cls-1" d="M232.51,288.5H248.7c-5.21-8-19.14-34.5-25.17-95.64-7.5-76-38.45-85.33-38.45-85.33S212.28,131,212.28,190C212.28,240.2,227.82,278.17,232.51,288.5Z"/><path class="cls-1" d="M218.61,288.5h15.74c-1-15.89-6.41-78.07-31.68-98.46-29.07-23.44-53.45,0-53.45,0,33.76-8.44,42.2-.94,56.26,28.13C217.11,242.21,218.48,277.13,218.61,288.5Z"/><path class="cls-3" d="M209.6,288.5h15.16c-2.35-9.06-8.51-30.94-14.66-37.78C202.26,242,197,221.13,197,221.13s.87,25.24,7.83,40C209.75,271.52,209.93,282.71,209.6,288.5Z"/></g></g><path class="cls-7" d="M395.78,288.49c4.23-6.1,12.12-18.75,14.15-30.94,2.81-16.88,15.94-22.5,15.94-22.5s-17.82,1.88-26.26,22.5a110,110,0,0,1-19.83,30.94Z"/><path class="cls-8" d="M411.57,223.76c-29.67,16.4-35.28,52.93-36.33,64.7h9.94c0-9.61,2.7-35.77,28.26-55.32,31.91-24.38,53.46-20.6,53.46-20.6S447.21,204.1,411.57,223.76Z"/><path class="cls-9" d="M366.35,288.49h12.06c7-44,9.64-77.51,6.91-132.21-2.81-56.27,22.5-82.52,22.5-82.52C373.13,104.7,372.19,158.15,375.94,190,379.18,217.53,369.17,273.59,366.35,288.49Z"/><path class="cls-10" d="M368.47,288.49c.09-11.39.35-55-1-78.77-1.41-25.43-5.63-81.58-5.63-81.58s-3.4,72.91-6.56,100.33c-2.32,20.09-.09,50.68.69,60Z"/><path class="cls-11" d="M347.92,288.49h5.32c-1.08-15.9-6.47-95.68-7.31-121-.94-28.13-4.69-76-4.69-76s-10.31,78.77-4.69,129.4C341,260.76,346,281.48,347.92,288.49Z"/><path class="cls-7" d="M321.35,184.06c10.33,24.78,21.71,90.95,24,104.44h14c-2.13-14.15-14-86.35-34.28-117.57-20.08-31-54.38-28.17-54.38-28.17S307.26,150.3,321.35,184.06Z"/><path class="cls-10" d="M343.84,288.49l-7.38-20.67c-8.3-23.25-21.59-35.7-21.59-35.7,13.34,29.33,16.48,49.54,17.22,56.37Z"/><path class="cls-9" d="M343.35,288.49H358C355.22,277.25,344,240.17,311,210.31c0,0,20.33,28.77,25,50.87A196.59,196.59,0,0,0,343.35,288.49Z"/><path class="cls-8" d="M317.64,288.49h16.2c-5.21-8-19.14-34.51-25.17-95.64-7.5-76-38.45-85.33-38.45-85.33S297.41,131,297.41,190C297.41,240.19,313,278.16,317.64,288.49Z"/><path class="cls-9" d="M303.74,288.49h15.74c-1-15.89-6.41-78.07-31.68-98.46-29.07-23.44-53.45,0-53.45,0,33.76-8.44,42.2-.94,56.26,28.13,11.63,24,13,59,13.13,70.33"/><path class="cls-11" d="M294.73,288.49h15.16c-2.35-9.06-8.51-30.94-14.66-37.78-7.83-8.7-13-29.59-13-29.59s.87,25.24,7.83,40c4.87,10.39,5,21.58,4.72,27.37"/><path class="cls-7" d="M395.78,288.49c4.23-6.1,12.12-18.75,14.15-30.94,2.81-16.88,15.94-22.5,15.94-22.5s-17.82,1.88-26.26,22.5a110,110,0,0,1-19.83,30.94Z"/><path class="cls-8" d="M411.57,223.76c-29.67,16.4-35.28,52.93-36.33,64.7h9.94c0-9.61,2.7-35.77,28.26-55.32,31.91-24.38,53.46-20.6,53.46-20.6S447.21,204.1,411.57,223.76Z"/><path class="cls-9" d="M366.35,288.49h12.06c7-44,9.64-77.51,6.91-132.21-2.81-56.27,22.5-82.52,22.5-82.52C373.13,104.7,372.19,158.15,375.94,190,379.18,217.53,369.17,273.59,366.35,288.49Z"/><path class="cls-10" d="M368.47,288.49c.09-11.39.35-55-1-78.77-1.41-25.43-5.63-81.58-5.63-81.58s-3.4,72.91-6.56,100.33c-2.32,20.09-.09,50.68.69,60Z"/><path class="cls-11" d="M347.92,288.49h5.32c-1.08-15.9-6.47-95.68-7.31-121-.94-28.13-4.69-76-4.69-76s-10.31,78.77-4.69,129.4C341,260.76,346,281.48,347.92,288.49Z"/><path class="cls-7" d="M321.35,184.06c10.33,24.78,21.71,90.95,24,104.44h14c-2.13-14.15-14-86.35-34.28-117.57-20.08-31-54.38-28.17-54.38-28.17S307.26,150.3,321.35,184.06Z"/><path class="cls-10" d="M343.84,288.49l-7.38-20.67c-8.3-23.25-21.59-35.7-21.59-35.7,13.34,29.33,16.48,49.54,17.22,56.37Z"/><path class="cls-9" d="M343.35,288.49H358C355.22,277.25,344,240.17,311,210.31c0,0,20.33,28.77,25,50.87A196.59,196.59,0,0,0,343.35,288.49Z"/><path class="cls-8" d="M317.64,288.49h16.2c-5.21-8-19.14-34.51-25.17-95.64-7.5-76-38.45-85.33-38.45-85.33S297.41,131,297.41,190C297.41,240.19,313,278.16,317.64,288.49Z"/><path class="cls-9" d="M303.74,288.49h15.74c-1-15.89-6.41-78.07-31.68-98.46-29.07-23.44-53.45,0-53.45,0,33.76-8.44,42.2-.94,56.26,28.13,11.63,24,13,59,13.13,70.33"/><path class="cls-11" d="M294.73,288.49h15.16c-2.35-9.06-8.51-30.94-14.66-37.78-7.83-8.7-13-29.59-13-29.59s.87,25.24,7.83,40c4.87,10.39,5,21.58,4.72,27.37"/></g></g></svg>