<svg xmlns="http://www.w3.org/2000/svg" viewBox="0 0 149.42 189.71"><defs><style>.cls-1{fill:#ffc9ab;}.cls-2{fill:#f2b18f;}.cls-3{fill:#a46e3d;}.cls-4{opacity:0.08;}.cls-5{fill:#c68c5c;}.cls-6{fill:#353535;}.cls-7{fill:#fff;}.cls-8{fill:#ffe7b0;}.cls-9{fill:#5b2c14;}.cls-10{fill:#ffa492;}.cls-11{opacity:0.1;}</style></defs><title>Hamstersmall</title><g id="Слой_2" data-name="Слой 2"><g id="objects"><path class="cls-1" d="M48.86,170.76s-28-2.48-23,.27,8.44,1.73,8.44,1.73-23.24,2.23-5,4.05c0,0-19.47,8.41.17,3.62S49,174,49,174Z"/><path class="cls-2" d="M49,172.88c-2.34,1-7.22,2.63-17.4,5.11a44.44,44.44,0,0,1-7.86,1.47c-3.73,2-6.05,3.85,5.75,1C49.09,175.66,49,174,49,174Z"/><path class="cls-3" d="M21.56,155s14.59,20.67,26.84,17.33,9.36-6.73,9.36-6.73Z"/><path class="cls-1" d="M101.63,170.1s28-2.61,23,.16-8.44,1.77-8.44,1.77,23.25,2.11,5.06,4c0,0,19.51,8.31-.15,3.63s-19.59-6.32-19.59-6.32Z"/><path class="cls-2" d="M101.54,172.22c2.34,1,7.23,2.59,17.43,5a44.45,44.45,0,0,0,7.86,1.43c3.74,1.95,6.07,3.82-5.74,1-19.66-4.69-19.59-6.32-19.59-6.32Z"/><path class="cls-3" d="M127.51,156.94s-10.5,17.91-22.92,15.33-9.75-6.15-9.75-6.15Z"/><ellipse class="cls-4" cx="74.24" cy="175.83" rx="70.47" ry="13.88"/><path class="cls-3" d="M49.47,12.84S44-3.45,31.86,4.28c-9.19,5.83,3,18.22,3,18.22Z"/><path class="cls-1" d="M44.28,16.35S43.19,1.82,33.15,7.87c-7.15,4.32,1.61,14,1.61,14Z"/><path class="cls-3" d="M92.23,10.64s5.44-16.29,17.61-8.56c9.19,5.83-3,18.22-3,18.22Z"/><path class="cls-1" d="M97.42,14.15s1.1-14.53,11.13-8.47c7.15,4.32-1.61,14-1.61,14Z"/><path class="cls-5" d="M126.57,98c3.94-4.65,15-18.11,13.31-20.83-1.48-2.39-12.74-2.69-18.81-2.67,8-21-1.3-39.33-11.31-53.09C97.58,4.62,72,6,72,6s-29.4.63-38.16,19.39c-8.06,17.26-10,29.25-6.87,46.39-5.72,1.8-16.68,5.58-17.37,8.35-.62,2.48,8.68,9.08,15.05,13.25-4.6,12.16-12.12,26.89-12.42,39.3a15.26,15.26,0,0,0,0,2.26c.43,11.18,6.3,21.58,24.1,29,36.37,15.19,72.73,9.38,91.15-6.84a29.19,29.19,0,0,0,6.77-7.6,31.85,31.85,0,0,0,5.3-13.4c.66-4.55-2.39-13.63-7.51-25C130.3,107,128.36,102.46,126.57,98Z"/><path class="cls-3" d="M126.57,98c3.94-4.65,15-18.11,13.31-20.83-1.48-2.39-12.74-2.69-18.81-2.67,8-21-1.3-39.33-11.31-53.09C97.58,4.62,72,6,72,6s-29.4.63-38.16,19.39c-8.06,17.26-10,29.25-6.87,46.39-5.72,1.8-16.68,5.58-17.37,8.35-.62,2.48,8.68,9.08,15.05,13.25-4.6,12.16-12.12,26.89-12.42,39.3a15.26,15.26,0,0,0,0,2.26c.43,11.18,6.3,21.58,24.1,29a116.6,116.6,0,0,0,14.48,5,39.61,39.61,0,0,1-7.62-13.12C40.53,148,37.93,138.34,39.54,130c2.33-12,7.25-21.64,18.31-27.81l.47-.24c8.46-6.52,19-8.09,29.49-5.69,19.1,4.37,32.51,27.22,30.79,46a55.44,55.44,0,0,1-9,25.22,57.88,57.88,0,0,0,17.87-10.41,29.2,29.2,0,0,0,6.77-7.6,31.85,31.85,0,0,0,5.3-13.4c.66-4.55-2.39-13.63-7.51-25C130.3,107,128.36,102.46,126.57,98Z"/><path class="cls-6" d="M54.48,40.81s3.5-4.57.23-9S44.07,30.16,43,35.61a6.41,6.41,0,0,0,6.46,8A6.78,6.78,0,0,0,54.48,40.81Z"/><path class="cls-7" d="M47.14,37.9a4,4,0,0,0,1.23-3.61C48,32,45.53,32,44.52,34.07s-.11,3.79.82,4.22A1.76,1.76,0,0,0,47.14,37.9Z"/><path class="cls-7" d="M47.86,40.83a1.3,1.3,0,0,0,.61-1.4,1.19,1.19,0,0,0-2.1-.15A1.09,1.09,0,0,0,46.88,41,1.17,1.17,0,0,0,47.86,40.83Z"/><path class="cls-6" d="M92.28,39.74S88,35.85,90.48,31s10.18-3.53,12.19,1.64a6.41,6.41,0,0,1-5,9A6.78,6.78,0,0,1,92.28,39.74Z"/><path class="cls-7" d="M95.87,35.59a4,4,0,0,0,1.84-3.34c0-2.3-2.4-2.74-3.76-.88s-.77,3.72.07,4.3A1.76,1.76,0,0,0,95.87,35.59Z"/><path class="cls-7" d="M96.06,38.61a1.3,1.3,0,0,0,.84-1.27,1.19,1.19,0,0,0-2-.52,1.09,1.09,0,0,0,.22,1.74A1.17,1.17,0,0,0,96.06,38.61Z"/><path class="cls-8" d="M80.54,57.18s2.6,4.11-3.36,5.08c-.27,0-.74-1.64-1-1.61s-.39,1.77-.66,1.78c-5.77.21-4.63-4-4.63-4A12.41,12.41,0,0,0,74.35,49S77.45,56.86,80.54,57.18Z"/><path class="cls-9" d="M87.36,50.77a9.31,9.31,0,0,1,.06,3c0,.25-.1.5-.15.75s-.15.49-.25.73-.22.47-.36.69a6.59,6.59,0,0,1-.48.63,5.24,5.24,0,0,1-.6.52c-.23.13-.46.28-.7.39l-.76.24a7.4,7.4,0,0,1-.78.11,8.63,8.63,0,0,1-1.56,0,11.1,11.1,0,0,1-1.5-.33,6.68,6.68,0,0,1-1.45-.66,7,7,0,0,1-1.27-.93,9.31,9.31,0,0,1-1-1.17,10,10,0,0,1-.84-1.31,12.81,12.81,0,0,1-.65-1.4c-.2-.48-.35-1-.51-1.45a16.92,16.92,0,0,1-.59-3l1,0a24.3,24.3,0,0,1-.33,3.2,23.73,23.73,0,0,1-.72,3.13,14,14,0,0,1-1.27,3,6.93,6.93,0,0,1-2.24,2.45,5.11,5.11,0,0,1-1.57.64,5.19,5.19,0,0,1-1.67.1,10.46,10.46,0,0,1-1.59-.32A6.58,6.58,0,0,1,64,59a4.1,4.1,0,0,1-1.17-1.17,3.84,3.84,0,0,1-.51-1.55,5.72,5.72,0,0,1,.6-3.1,6.49,6.49,0,0,0-.36,1.52,4.69,4.69,0,0,0,0,1.54,3.51,3.51,0,0,0,.57,1.38,3.69,3.69,0,0,0,1.12,1,6.1,6.1,0,0,0,1.37.56,9.86,9.86,0,0,0,1.51.24,4.52,4.52,0,0,0,1.46-.15A4.37,4.37,0,0,0,70,58.63a6.77,6.77,0,0,0,1.91-2.23A13.09,13.09,0,0,0,73,53.58a26.57,26.57,0,0,0,.94-6.1l1,0a16.06,16.06,0,0,0,.51,2.83c.14.46.28.93.46,1.37A11.93,11.93,0,0,0,76.5,53a9.13,9.13,0,0,0,.75,1.21,8.44,8.44,0,0,0,.92,1.08,7.69,7.69,0,0,0,1.11.86,6,6,0,0,0,1.23.63,10.7,10.7,0,0,0,1.39.38,8.05,8.05,0,0,0,1.42.07,7,7,0,0,0,.7-.07l.67-.18c.21-.09.41-.21.62-.31s.36-.29.55-.42a6.3,6.3,0,0,0,.47-.53c.14-.19.24-.41.37-.61s.19-.44.28-.67l.2-.7A10.47,10.47,0,0,0,87.36,50.77Z"/><path class="cls-10" d="M74.21,48.24s6.42-2,5.52-3.75-12-.75-11,1.47S74.21,48.24,74.21,48.24Z"/><path class="cls-1" d="M11,83.64S-2.18,94.3,6.5,84c0,0-10.79,3.35-.94-2,0,0-12.2-1.09-.47-2.5,0,0-11.09-6.8,3-1.17,0,0-3.67-9,1.81-2.23C13.77,80.88,11,83.64,11,83.64Z"/><path class="cls-1" d="M138.61,79.41s13.62,10,4.47.13c0,0,10.94,2.84.85-2,0,0,12.13-1.66.35-2.52,0,0,10.75-7.32-3.07-1,0,0,3.25-9.18-1.91-2.14C135.67,76.79,138.61,79.41,138.61,79.41Z"/><path class="cls-11" d="M144.27,75s10.75-7.32-3.07-1c0,0,3.25-9.18-1.91-2.14a8.62,8.62,0,0,0-1.77,4c-4-1.18-11.76-1.36-16.45-1.35,8-21-1.3-39.33-11.31-53.09-.58-.79-1.19-1.53-1.82-2.24,2.74-3.22,9.37-12.31,1.9-17-10-6.32-15.41,3.43-17.06,7.19q-.94-.34-1.88-.63A60.39,60.39,0,0,1,103.59,41c.92,11.14.56,22.9-6.17,32.46l-.13.17c9,5.22,16.44,13.62,19.64,23.27,4.79,14.45,5.84,31.77-4.79,44.23s-24.84,17.42-40.88,18.14c-10.5.47-22.21-.62-31.8-5.19-11.3-5.38-20.39-12.47-27.19-22.62,0,.4-.06.8-.07,1.19a15.26,15.26,0,0,0,0,2.26A27.47,27.47,0,0,0,21.56,155s7,10,15.43,14.94c-6.93-.35-13.82-.39-11.12,1.1A14,14,0,0,0,32.6,173c-5,.57-18.42,2.36-3.32,3.87,0,0-4.37,1.89-6.88,3.37h0l-.26.15,0,0-.24.15h0l-.46.32h0l-.17.13,0,0-.12.11,0,0-.1.1,0,0a.88.88,0,0,0-.16.22v0a.3.3,0,0,0,0,.07.2.2,0,0,0,0,0,.18.18,0,0,0,0,.06v0l0,0,0,0,.09.05h0l.14,0H21l.13,0h.62l.31,0h0l.39,0,.14,0,.31,0,.18,0,.33-.05.2,0,.4-.07.19,0,.62-.12h0l.7-.14.23,0,.54-.11.29-.06.57-.13.29-.07.66-.15.26-.06,1-.24c4.3-1,7.65-1.94,10.27-2.7s4.5-1.39,5.85-1.89l1-.41C49,174.44,49,174,49,174l-.09-1.84a30.92,30.92,0,0,0,6-2.24,100.53,100.53,0,0,0,44,.73c.76.29,1.64.59,2.67.87l-.08,1.82s0,.19.78.64c.21.12.49.26.84.42l.8.35c.46.19,1,.39,1.65.62.86.31,1.91.65,3.17,1l2.07.61,1.17.33c2.43.67,5.42,1.45,9.11,2.32h0l1,.23.31.07.61.14.33.07.53.12.31.07.53.11.23,0,.7.14h0l.59.11.19,0,.39.06.2,0,.33,0,.18,0,.31,0,.14,0,.39,0h0l.32,0h.62l.13,0h0l.14,0h0l.09-.05,0,0,0,0v0a.18.18,0,0,0,0-.06.2.2,0,0,0,0,0,.3.3,0,0,0,0-.07v0a.87.87,0,0,0-.16-.22l0,0-.1-.1,0,0-.12-.1,0,0-.17-.13h0l-.46-.31h0l-.23-.15,0,0-.25-.15h0c-.39-.23-.84-.47-1.3-.71h0c-2.49-1.29-5.59-2.62-5.59-2.62,15.09-1.59,1.68-3.31-3.34-3.85a14,14,0,0,0,6.72-1.95c2.28-1.27-2.33-1.41-8-1.19,5.84-4.13,10-10.62,10.78-11.9l.07-.06a29.2,29.2,0,0,0,6.77-7.6,31.85,31.85,0,0,0,5.3-13.4c.66-4.55-2.39-13.63-7.51-25-1.71-4.14-3.65-8.7-5.44-13.19C129.69,94.28,137.29,85,139.46,80c2.84,2,11.34,7.87,3.61-.49,0,0,10.94,2.84.85-2C143.92,77.54,156.06,75.88,144.27,75Z"/></g></g></svg>