<svg xmlns="http://www.w3.org/2000/svg" viewBox="0 0 169.17 200.66"><defs><style>.cls-1{opacity:0.08;}.cls-2{fill:#ffc9ab;}.cls-3{fill:#f2b18f;}.cls-4{fill:#bf6a36;}.cls-5{fill:#a04e20;}.cls-6{fill:#353535;}.cls-7{fill:#fff;}.cls-8{fill:#f7836f;}.cls-9{fill:#8c441c;}.cls-10{fill:#ffa492;}.cls-11{fill:#665f5d;}.cls-12{opacity:0.3;}</style></defs><title>Mousesmall</title><g id="Слой_2" data-name="Слой 2"><g id="objects"><ellipse class="cls-1" cx="70.47" cy="186.78" rx="70.47" ry="13.88"/><path class="cls-2" d="M41.58,178.71s-34.46,6.79-26.95,7,11-1.46,11-1.46S-.5,192.42,22,188.12c0,0-18.05,10.78,2.31,2.12s19.33-9.62,19.33-9.62Z"/><path class="cls-3" d="M42.94,180c-2.18,1.29-7,3.7-17.54,8.2a73.06,73.06,0,0,1-8.41,3.2c-3.25,2.28-4.89,4.09,7.35-1.11,20.37-8.66,19.33-9.62,19.33-9.62Z"/><path class="cls-2" d="M96.58,182.93s35.1-1.26,27.82.62-11,1.08-11,1.08,27.29,2,4.38,3c0,0,20,6.37-1.77,2.59s-21-4.95-21-4.95Z"/><path class="cls-3" d="M95.55,184.45c2.41.76,7.64,2,18.95,4a73.06,73.06,0,0,0,8.92,1.2c3.69,1.47,5.69,2.87-7.41.59-21.81-3.78-21-4.95-21-4.95Z"/><path class="cls-2" d="M162.74,91.35a15.42,15.42,0,0,0,6.21-15.22c-1.21-7.35-8.73-12.51-15.42-14.22a18.39,18.39,0,0,0-19.43,6.86c-4.74,6.61-4.2,13.92-1.89,21.39,2.79,9,7.55,17.3,11,26.06a45.31,45.31,0,0,1,2,27c-1.66,7.82-5.54,15.16-12.06,20-7.09,5.22-16.16,6.55-24.75,6.51-3.47,0-3.47,5.36,0,5.38,14.42.06,28.37-4.3,36.57-16.85s8.58-29.68,3.4-43.47c-2.93-7.8-6.89-15.17-9.87-23-2.81-7.34-4.6-15.13,1.27-21.44,5.12-5.51,13.93-4.21,19.35,0,3.33,2.61,5.52,6.71,4.51,11a9.83,9.83,0,0,1-2.18,3.89c-.28.33-2.18,2-1.4,1.41-2.75,2-.07,6.72,2.72,4.65Z"/><path class="cls-3" d="M123.95,167.72a52.63,52.63,0,0,1-15.56,2,2.45,2.45,0,0,0-2,.89A48.39,48.39,0,0,0,123.95,167.72Z"/><path class="cls-3" d="M138.48,91.82c-2.81-7.34-4.6-15.13,1.27-21.44A11.08,11.08,0,0,1,143,68a11.24,11.24,0,0,0-5.82,3.32c-5.87,6.31-4.08,14.1-1.27,21.44,3,7.78,6.94,15.15,9.87,23,5.18,13.79,4.9,30.77-3.4,43.47a34.85,34.85,0,0,1-17.07,13.58A35.39,35.39,0,0,0,145,158.24c8.3-12.7,8.58-29.68,3.4-43.47C145.42,107,141.46,99.61,138.48,91.82Z"/><path class="cls-3" d="M168.95,76.13c-1.21-7.35-8.73-12.51-15.42-14.22a18.77,18.77,0,0,0-12.08,1A18.77,18.77,0,0,1,151,62.8c6.69,1.71,14.21,6.87,15.42,14.22a15.37,15.37,0,0,1-5.63,14.76,2.2,2.2,0,0,0,2-.44A15.42,15.42,0,0,0,168.95,76.13Z"/><path class="cls-4" d="M44.79,20.71s-19.58-25.47-32-3.5c-9.86,17.42,17,26.8,17,26.8Z"/><path class="cls-2" d="M37.75,29.09S24.88,4.27,14.35,21.93C6.91,34.41,28,41,28,41Z"/><path class="cls-4" d="M76,13.47S91.11-10.95,109.86,6C124,18.73,98.43,34.41,98.43,34.41Z"/><path class="cls-5" d="M109.86,6a26.6,26.6,0,0,0-5.4-3.84,12,12,0,0,1-4.06,11.14,88.33,88.33,0,0,1-13.6,10.3L98.43,34.41S124,18.73,109.86,6Z"/><path class="cls-2" d="M83.88,21s6.9-23.14,22.47-9.7c11.09,9.57-7.61,22-7.61,22Z"/><path class="cls-4" d="M33.48,32.95s-17,27-10.6,44.52,9.17,13.25,4.59,27-18.9,53-9.36,63.07,17.49,16.43,27.56,17,20.67-3.18,55.65,0,36.39-38.86,27.2-57.59c-8-16.24-21-27.71-14.84-43.1,12-30-10.25-62-29.85-70.49S57.33,7,57.33,7L67.4,11.22S57.86,8,49.38,9.63l5.3,2.65s-9.54.53-15.37,2.12L51.5,16S39.31,21.72,33.48,32.95Z"/><path class="cls-5" d="M128.49,127.15c-8-16.24-21-27.71-14.84-43.1,10-25-3.78-51.38-20-64.39,9.22,13.86,14.1,32.29,7,50-6.16,15.4,6.87,26.86,14.84,43.1,9.19,18.73,7.77,60.77-27.2,57.59s-45.58.53-55.65,0c-6.14-.32-11.49-2.82-16.9-7a10.61,10.61,0,0,0,2.33,4.39c9.54,10.07,17.49,16.43,27.56,17s20.67-3.18,55.65,0S137.67,145.87,128.49,127.15Z"/><path class="cls-5" d="M80.95,109s6.48,15.55,17,11.73,5.83-16.8,5.83-16.8-3.15,19-18.46,2.68Z"/><path class="cls-5" d="M57.62,107s-.18,11.63-10.2,9S36.83,99.69,36.83,99.69,48.89,118,53.75,103.77,57.62,107,57.62,107Z"/><path class="cls-6" d="M46.49,54.65S53,49.71,50.2,42.46s-14-6.36-17.49.71,1.41,12.37,5.83,13.43A9.65,9.65,0,0,0,46.49,54.65Z"/><path class="cls-6" d="M78.53,50.66S72,45.72,74.82,38.48s14-6.36,17.49.71S90.9,51.55,86.48,52.61A9.65,9.65,0,0,1,78.53,50.66Z"/><path class="cls-7" d="M87.49,43.9a5.76,5.76,0,0,1-3.05-4.49c-.35-3.26,3-4.2,5.2-1.75s1.59,5.16.48,6.1A2.5,2.5,0,0,1,87.49,43.9Z"/><path class="cls-7" d="M87.62,48.19a1.85,1.85,0,0,1-1.36-1.69c0-1.32,1.82-1.89,2.83-1A1.55,1.55,0,0,1,89,48,1.66,1.66,0,0,1,87.62,48.19Z"/><path class="cls-7" d="M45.09,47.87A5.76,5.76,0,0,1,42,43.37c-.35-3.26,3-4.2,5.2-1.75s1.59,5.16.48,6.1A2.5,2.5,0,0,1,45.09,47.87Z"/><path class="cls-7" d="M45.24,52.1a1.82,1.82,0,0,1-1.34-1.66c0-1.3,1.79-1.86,2.78-1a1.52,1.52,0,0,1-.08,2.45A1.64,1.64,0,0,1,45.24,52.1Z"/><path class="cls-8" d="M59.7,65.45s.64,4.47,5.59,3.59S70,64,70,64a13.22,13.22,0,0,1-6.3-8.74S62.78,64.24,59.7,65.45Z"/><path class="cls-9" d="M50.88,60.8a11.15,11.15,0,0,0,1,3c.13.23.27.45.4.67s.31.41.48.61.36.36.55.52A6.72,6.72,0,0,0,54,66c.23.09.45.22.68.28s.48.11.72.14h.74a7.41,7.41,0,0,0,.74-.13,2.8,2.8,0,0,0,.72-.21l.71-.27A11.39,11.39,0,0,0,59.62,65a6.37,6.37,0,0,0,1.08-1,8.2,8.2,0,0,0,.89-1.2,9,9,0,0,0,.64-1.36A9.74,9.74,0,0,0,62.66,60a12.7,12.7,0,0,0,.23-1.51c.06-.51.07-1,.08-1.54a17.11,17.11,0,0,0-.28-3.06l1-.26a28.31,28.31,0,0,0,2.69,6,14,14,0,0,0,2,2.57A7.21,7.21,0,0,0,71,63.94a4.66,4.66,0,0,0,1.52.25A4.81,4.81,0,0,0,74,63.93l.37-.14.09,0h0l0,0,.19-.09.75-.38a6.5,6.5,0,0,0,1.25-1,3.93,3.93,0,0,0,.87-1.3,3.74,3.74,0,0,0,.19-1.58,5,5,0,0,0-.41-1.59,6.91,6.91,0,0,0-.8-1.46,6.1,6.1,0,0,1,1.49,3A4.09,4.09,0,0,1,78,61.12a4.37,4.37,0,0,1-.87,1.54,7,7,0,0,1-1.36,1.14l-.73.41-.18.1,0,0-.07,0-.1,0-.41.17a5.53,5.53,0,0,1-1.74.37,5.45,5.45,0,0,1-1.79-.22,7.38,7.38,0,0,1-3-1.88,14.88,14.88,0,0,1-2.15-2.71,25.28,25.28,0,0,1-1.63-3,25.91,25.91,0,0,1-1.25-3.19l1-.26A18,18,0,0,1,64,56.95c0,.55,0,1.09-.11,1.63a13.66,13.66,0,0,1-.27,1.62,10.67,10.67,0,0,1-.49,1.58,9.91,9.91,0,0,1-.73,1.5,7.42,7.42,0,0,1-1,1.32A7.12,7.12,0,0,1,60,65.69a11.84,11.84,0,0,1-1.45.77l-.79.26a3.24,3.24,0,0,1-.81.19,7.88,7.88,0,0,1-.83.1l-.85,0c-.28,0-.55-.13-.83-.2a5.57,5.57,0,0,1-.76-.36A7,7,0,0,1,53,65.9c-.2-.19-.37-.41-.56-.61s-.31-.45-.46-.68-.25-.48-.37-.72A9.93,9.93,0,0,1,50.88,60.8Z"/><path class="cls-10" d="M63.34,54.55S56.27,53.31,57,51.37s12.54-2.47,11.84,0S63.34,54.55,63.34,54.55Z"/><path class="cls-5" d="M55.9,71.39S66.23,77,74.11,70.45C74.11,70.45,66.55,90.68,55.9,71.39Z"/><path class="cls-6" d="M63.07,76.75s-27.82,63.81,2.17,66.84C105.57,147.68,89.44,95.54,63.07,76.75Z"/><path class="cls-11" d="M84.38,128.4c-.71-9.72-13.91-41.52-13.91-41.52-2.53,9.67,4.88,44.22,4.88,44.22A49.25,49.25,0,0,0,67,110.29C65.6,115.69,62,128.74,62,128.74V97.57c-5.82,8.14-8.5,23.58-9.71,34.38,1.62,6.37,5.5,10.9,13,11.65,26.81,2.72,28.66-19.41,19.15-40.07Z"/><path class="cls-12" d="M65.24,135c-9.13-.93-12.88-7.5-13.71-16.17-1,12.64,1.75,23.53,13.71,24.74,19.61,2,25.85-9.33,24.08-23.63C87.85,129.88,80.71,136.6,65.24,135Z"/><path class="cls-2" d="M85.36,101.53a15.31,15.31,0,0,0-4.48,1.41s3.18.53,4.42,2.12c0,0-4-1.22-5.63,2.22,0,0,4.84-1,6.65,1,0,0-3.85,0-5.24,3.14,0,0,4.53-2.63,6.49,2s5.16-1.1,5.32-5.18C93,105.24,87.82,101.18,85.36,101.53Z"/><path class="cls-3" d="M85.07,101.58a15.59,15.59,0,0,0-4.19,1.36s3.18.53,4.42,2.12c0,0-4-1.22-5.63,2.22,0,0,4.84-1,6.65,1,0,0-3.85,0-5.24,3.14,0,0,4.53-2.63,6.49,2,1.38,3.26,3.36,1.41,4.48-1.39A12.24,12.24,0,0,1,85.07,101.58Z"/><path class="cls-2" d="M56.82,95.74a15.32,15.32,0,0,1,4.48,1.41s-3.18.53-4.42,2.12c0,0,4-1.22,5.63,2.22,0,0-4.84-1-6.65,1,0,0,3.85,0,5.24,3.14,0,0-4.53-2.63-6.49,2s-5.16-1.1-5.32-5.18C49.17,99.44,54.36,95.39,56.82,95.74Z"/><path class="cls-3" d="M55.86,102.53c1.81-2,6.65-1,6.65-1-1.61-3.44-5.63-2.22-5.63-2.22,1.24-1.59,4.42-2.12,4.42-2.12a15.31,15.31,0,0,0-4.48-1.41A3.81,3.81,0,0,0,55,96a11.24,11.24,0,0,1,.43,3.78,11.09,11.09,0,0,1-4.39,8.25c1.1,1.61,2.5,2.1,3.55-.38,2-4.65,6.49-2,6.49-2C59.71,102.56,55.86,102.53,55.86,102.53Z"/></g></g></svg>