<svg xmlns="http://www.w3.org/2000/svg" viewBox="0 0 38.37 67.08"><defs><style>.cls-1{fill:#353535;}.cls-2{fill:#665f5d;}.cls-3{opacity:0.3;isolation:isolate;}</style></defs><title>Seed</title><g id="Слой_2" data-name="Слой 2"><g id="Слой_1-2" data-name="Слой 1"><g id="Слой_2-2" data-name="Слой 2"><g id="Слой_1-2-2" data-name="Слой 1-2"><path class="cls-1" d="M11.75,0s-27.82,63.81,2.17,66.84C54.25,70.93,38.12,18.79,11.75,0Z"/><path class="cls-2" d="M33.06,51.65c-.71-9.72-13.91-41.52-13.91-41.52C16.62,19.8,24,54.35,24,54.35a49.25,49.25,0,0,0-8.35-20.81c-1.4,5.4-5,18.45-5,18.45V20.82C4.86,29,2.18,44.4,1,55.2c1.62,6.37,5.5,10.9,13,11.65,26.81,2.72,28.66-19.41,19.15-40.07Z"/><path class="cls-3" d="M13.92,58.25C4.79,57.32,1,50.75.21,42.08-.79,54.7,2,65.61,13.92,66.82c19.61,2,25.85-9.33,24.08-23.63C36.53,53.13,29.39,59.85,13.92,58.25Z"/></g></g></g></g></svg>